<?xml version="1.0" encoding="utf-8"?>
<!-- Generator: Adobe Illustrator 16.2.1, SVG Export Plug-In . SVG Version: 6.00 Build 0)  -->
<!DOCTYPE svg PUBLIC "-//W3C//DTD SVG 1.1//EN" "http://www.w3.org/Graphics/SVG/1.1/DTD/svg11.dtd">
<svg version="1.1" id="Layer_1" xmlns="http://www.w3.org/2000/svg" xmlns:xlink="http://www.w3.org/1999/xlink" x="0px" y="0px"
	 width="16px" height="16px" viewBox="0 0 16 16" enable-background="new 0 0 16 16" xml:space="preserve">
<path d="M16,8.87v-1.82l-0.26-0.08l-1.95-0.64L13.27,5.08l1-2.12l-1.279-1.29l-0.25,0.12l-1.82,0.93L9.66,2.2L8.87,0H7.05
	l-0.079,0.26L6.33,2.209L5.08,2.73l-2.12-1L1.67,3.009l0.12,0.25l0.931,1.82L2.2,6.339L0,7.129v1.82l0.26,0.08L2.21,9.67l0.521,1.25
	l-1,2.119L3.01,14.33l0.25-0.121l1.82-0.93l1.26,0.52L7.13,16h1.82l0.079-0.26l0.641-1.951l1.26-0.52l2.11,1l1.29-1.279l-0.12-0.25
	l-0.931-1.82L13.8,9.66L16,8.87z M8,10.549C6.59,10.549,5.45,9.41,5.45,8c0-1.41,1.14-2.55,2.55-2.55s2.55,1.14,2.55,2.55
	C10.55,9.41,9.41,10.549,8,10.549z"/>
</svg>
